<?xml version="1.0" standalone="no"?>
<!DOCTYPE svg PUBLIC "-//W3C//DTD SVG 20010904//EN"
 "http://www.w3.org/TR/2001/REC-SVG-20010904/DTD/svg10.dtd">
<svg version="1.0" xmlns="http://www.w3.org/2000/svg"
 width="512.000000pt" height="512.000000pt" viewBox="0 0 512.000000 512.000000"
 preserveAspectRatio="xMidYMid meet">
<metadata>
Created by potrace 1.11, written by Peter Selinger 2001-2013
</metadata>
<g transform="translate(0.000000,512.000000) scale(0.100000,-0.100000)"
fill="#000000" stroke="none">
<path d="M1419 5097 c-87 -74 -127 -188 -127 -356 0 -63 3 -124 8 -137 8 -20
5 -23 -23 -30 -85 -18 -245 -79 -309 -117 -248 -148 -410 -441 -543 -982 -24
-99 -46 -192 -49 -208 -9 -52 -47 -253 -73 -382 -14 -71 -27 -139 -29 -150 -4
-29 -16 -86 -64 -300 -23 -104 -46 -209 -51 -232 -4 -23 -15 -68 -23 -100 -8
-32 -18 -74 -21 -93 -3 -19 -15 -73 -25 -120 -27 -123 -50 -261 -72 -425 -20
-158 -16 -639 7 -787 2 -13 6 -49 10 -81 5 -40 12 -60 25 -67 27 -14 101 -38
140 -45 82 -15 110 -17 200 -19 150 -3 291 27 407 85 68 34 69 36 77 124 4 33
8 76 11 95 2 19 7 56 10 82 11 103 16 144 20 158 2 8 7 40 10 70 6 46 25 155
81 465 29 158 172 697 190 715 10 10 -15 -507 -30 -640 -3 -19 -8 -66 -11
-105 -8 -79 -10 -93 -25 -205 -16 -119 -19 -140 -25 -195 -3 -27 -8 -61 -10
-75 -2 -14 -7 -59 -10 -100 -3 -41 -8 -100 -11 -130 -9 -108 -12 -465 -4 -487
16 -40 222 -137 405 -192 127 -37 330 -79 475 -97 25 -3 59 -7 75 -9 112 -15
249 -20 520 -20 379 0 476 7 730 51 182 31 193 33 240 46 22 6 45 11 50 13 95
21 312 104 388 148 38 22 72 49 77 61 8 21 5 380 -4 491 -15 171 -18 201 -21
215 -2 8 -7 45 -10 82 -3 37 -8 75 -10 86 -2 10 -6 43 -10 72 -4 29 -8 61 -10
71 -2 10 -7 49 -10 86 -4 37 -8 79 -10 93 -5 29 -22 239 -30 360 -4 47 -8 153
-10 235 l-3 150 24 -70 c26 -74 122 -431 140 -520 2 -11 6 -30 8 -43 3 -13 7
-31 10 -40 9 -30 17 -76 20 -119 2 -23 7 -46 10 -52 4 -6 9 -19 10 -28 6 -27
47 -285 51 -313 2 -14 6 -45 10 -70 4 -25 8 -58 10 -75 2 -16 6 -48 9 -70 6
-44 13 -109 22 -200 3 -34 12 -68 22 -78 26 -29 130 -73 227 -97 213 -53 573
-11 591 69 3 14 7 33 9 41 2 8 7 47 10 85 4 39 9 81 11 95 13 62 11 550 -2
660 -22 190 -97 588 -144 770 -15 58 -39 163 -45 200 -3 19 -10 51 -15 71 -6
19 -28 123 -49 230 -41 200 -43 212 -61 314 -11 59 -27 141 -56 283 -73 361
-196 704 -320 892 -54 82 -146 180 -215 227 -63 44 -181 97 -274 123 -44 12
-86 24 -93 26 -10 3 -12 16 -8 52 3 26 7 65 8 87 1 22 7 43 12 47 7 5 7 8 -1
8 -8 0 -13 13 -13 30 0 48 -21 132 -48 188 -30 64 -99 135 -121 127 -20 -8
-219 -64 -246 -70 -197 -40 -263 -51 -340 -60 -27 -3 -59 -8 -70 -10 -133 -27
-684 -27 -880 0 -16 3 -50 7 -75 9 -159 17 -454 83 -592 131 -7 2 -25 -6 -39
-18z m180 -327 c61 -72 100 -107 177 -156 35 -22 61 -44 57 -49 -5 -4 -2 -5 4
-1 11 6 143 -47 143 -57 0 -2 -46 2 -102 9 -155 20 -178 23 -238 34 -30 5 -73
12 -94 15 -21 3 -50 8 -62 10 -13 3 -35 7 -48 10 -28 6 -36 30 -40 129 -4 78
9 155 35 215 l19 44 51 -74 c28 -41 72 -99 98 -129z m2091 158 c48 -111 46
-332 -4 -343 -51 -12 -398 -65 -466 -71 -41 -3 -79 -9 -85 -12 -5 -3 -7 -2 -3
3 4 4 40 22 81 40 160 69 286 178 397 343 30 45 56 82 58 82 2 0 12 -19 22
-42z m-1982 7 c120 -27 166 -35 272 -50 25 -3 56 -8 70 -10 218 -34 682 -40
930 -11 19 3 62 7 95 11 33 4 83 11 110 16 28 5 64 12 80 15 42 7 204 41 239
50 l29 7 -33 -49 c-18 -27 -68 -83 -109 -124 -107 -106 -213 -158 -535 -266
-88 -29 -167 -61 -176 -71 -9 -10 -30 -49 -45 -88 -16 -38 -32 -74 -35 -80 -4
-5 -12 -29 -20 -52 -7 -24 -16 -43 -20 -43 -3 0 -25 48 -48 108 -67 171 -56
161 -233 221 -350 118 -471 180 -578 296 -54 60 -116 145 -106 145 4 0 54 -11
113 -25z m-268 -461 c22 -4 162 -27 240 -39 21 -3 116 -16 225 -30 61 -8 122
-14 195 -20 143 -12 175 -14 212 -14 42 -1 41 1 12 -100 -17 -60 -35 -96 -136
-267 -124 -209 -158 -349 -134 -544 10 -80 57 -250 73 -266 23 -22 68 -17 82
9 10 19 8 37 -14 112 -14 50 -27 111 -28 137 -1 27 -5 48 -8 48 -10 0 -1 174
11 205 6 17 10 30 9 30 -1 0 4 18 11 39 14 45 53 118 114 216 55 89 116 209
117 228 0 10 7 -1 15 -23 9 -22 20 -49 24 -60 5 -11 17 -45 26 -75 16 -51 17
-187 19 -1840 1 -1111 -2 -1787 -8 -1791 -12 -8 -224 1 -387 16 -155 15 -357
48 -540 89 -74 16 -294 88 -348 114 -27 13 -37 23 -36 39 6 110 15 244 19 273
2 19 7 60 9 90 3 30 8 64 10 75 2 11 7 47 10 80 4 33 9 71 11 85 10 54 27 208
41 367 3 43 8 94 10 113 22 240 22 800 0 949 -11 71 -31 90 -77 76 -28 -9 -38
-42 -29 -100 14 -92 5 -145 -49 -295 -91 -253 -173 -551 -235 -865 -31 -152
-31 -156 -41 -215 -4 -25 -9 -52 -10 -60 -1 -8 -6 -35 -10 -60 -4 -25 -9 -52
-10 -60 -2 -8 -8 -56 -15 -107 l-13 -92 -61 -20 c-56 -19 -124 -36 -186 -47
-14 -3 -36 -7 -50 -10 -14 -3 -63 -5 -110 -4 -94 0 -150 6 -253 25 l-38 7 5
257 c2 141 7 279 11 306 18 142 63 403 70 416 3 4 7 24 11 44 3 21 17 86 30
144 77 333 189 871 225 1078 6 40 15 71 18 69 3 -2 7 15 7 38 3 101 129 534
205 703 78 174 190 319 307 397 66 44 184 96 252 112 19 4 42 9 50 11 8 3 23
5 32 7 10 1 20 5 24 8 5 6 17 5 84 -8z m2355 1 c67 -16 186 -55 232 -76 304
-140 489 -509 632 -1264 17 -88 37 -196 45 -240 24 -124 86 -426 96 -465 5
-19 11 -46 14 -60 3 -14 12 -56 21 -95 9 -38 18 -81 21 -95 3 -14 11 -50 19
-80 20 -77 86 -407 84 -417 -1 -4 0 -15 4 -23 3 -8 13 -67 23 -130 18 -123 32
-640 17 -640 -4 0 -46 -7 -93 -15 -85 -15 -260 -22 -296 -12 -10 3 -37 8 -59
12 -47 7 -227 55 -237 64 -4 4 -9 27 -12 51 -2 25 -11 86 -20 135 -8 50 -17
104 -19 120 -9 61 -41 238 -52 285 -3 14 -7 37 -10 52 -3 16 -12 58 -21 95 -9
38 -18 79 -20 93 -4 20 -51 202 -69 270 -34 122 -50 175 -88 285 -25 72 -55
154 -67 184 -18 47 -20 66 -14 140 4 47 6 95 6 106 -2 35 -49 56 -80 36 -29
-18 -43 -157 -46 -454 -1 -106 -6 -198 -10 -206 -6 -10 -5 -12 2 -7 9 5 12
-18 13 -86 0 -51 2 -109 4 -128 2 -19 6 -80 10 -135 8 -130 19 -254 30 -330 2
-16 7 -61 11 -100 3 -38 8 -73 10 -76 2 -3 6 -34 10 -70 3 -35 8 -66 9 -69 2
-3 6 -37 10 -75 4 -39 8 -81 10 -94 4 -21 8 -79 19 -257 l3 -41 -95 -37 c-144
-56 -331 -106 -522 -140 -19 -3 -53 -8 -75 -11 -22 -4 -51 -8 -65 -10 -14 -3
-56 -7 -95 -11 -38 -4 -72 -8 -75 -9 -3 -2 -68 -6 -145 -10 -77 -4 -161 -8
-186 -10 -26 -1 -51 0 -56 4 -6 4 -9 680 -8 1796 l2 1790 30 85 c43 120 84
223 96 237 12 16 51 -3 41 -19 -4 -7 -3 -8 5 -4 29 19 152 -97 197 -185 47
-93 67 -193 67 -329 0 -69 -3 -143 -7 -165 -11 -66 -26 -148 -32 -175 -16 -72
-16 -106 1 -120 36 -30 68 -18 87 29 41 108 77 480 54 559 -3 9 -7 35 -11 57
-18 126 -80 248 -174 343 l-53 52 44 1 c24 0 50 2 58 3 8 2 49 6 90 10 67 7
249 29 340 42 67 10 265 46 268 49 4 4 38 0 77 -10z m-3010 -3727 c-4 -40 -11
-80 -16 -89 -24 -47 -250 -94 -404 -85 -88 5 -208 26 -220 38 -4 4 -9 41 -19
136 -3 31 -2 32 28 27 191 -32 313 -32 461 -1 48 10 138 36 143 41 3 3 12 5
20 5 11 0 12 -13 7 -72z m3585 61 c173 -52 332 -68 488 -50 53 7 106 13 117
14 17 2 20 -3 17 -38 -2 -22 -5 -49 -7 -60 -2 -11 -4 -30 -4 -42 -1 -25 -28
-36 -141 -54 -143 -22 -381 9 -467 63 -24 14 -33 27 -33 46 0 15 -3 51 -6 80
-4 28 -5 52 -3 52 2 0 20 -5 39 -11z m-3022 -331 c2 -5 7 -6 11 -3 5 2 39 -5
77 -16 38 -11 101 -27 139 -35 39 -8 77 -18 85 -21 8 -3 24 -7 35 -8 11 -2 47
-8 80 -14 33 -6 80 -13 105 -16 25 -3 56 -7 70 -10 95 -14 361 -35 495 -38
l60 -2 1 -102 c0 -87 -2 -103 -15 -104 -40 -1 -220 3 -251 6 -19 2 -78 6 -130
10 -52 4 -97 10 -100 14 -3 3 -21 6 -40 6 -19 1 -60 5 -90 9 -30 4 -68 10 -84
12 -60 8 -281 66 -364 96 -48 16 -124 48 -169 69 l-83 38 0 90 0 89 83 -31
c45 -17 84 -35 85 -39z m2592 -17 l0 -90 -82 -40 c-160 -77 -405 -148 -608
-176 -25 -3 -72 -10 -105 -15 -127 -19 -384 -34 -511 -31 -20 1 -21 6 -20 106
l1 105 100 1 c55 0 116 2 135 4 19 2 69 6 110 9 131 10 191 17 360 46 91 16
176 31 189 34 76 17 264 73 339 102 48 18 88 33 90 33 1 1 2 -39 2 -88z"/>
</g>
</svg>
